D:\school\WTK\thesis\model\3dpredictsim\Results\batch_windlass\Pog_s1_tmt_bCst_d00_k800_WL20_ig24_pas_GRF.mot
nRows=20
nColumns=19

name D:\school\WTK\thesis\model\3dpredictsim\Results\batch_windlass\Pog_s1_tmt_bCst_d00_k800_WL20_ig24_pas_GRF.mot
datacolumns 19
datarows 20
range 0.0000000000 0.1995938408
endheader
time 	ground_force_vx	ground_force_vy	ground_force_vz	ground_force_px	ground_force_py	ground_force_pz	1_ground_force_vx	1_ground_force_vy	1_ground_force_vz	1_ground_force_px	1_ground_force_py	1_ground_force_pz	ground_torque_x	ground_torque_y	ground_torque_z	1_ground_torque_x	1_ground_torque_y	1_ground_torque_z
        0.0000000000	      -78.9786826593	       55.9492163067	       16.7483401665	        0.1235176447	        0.0000000000	        0.0469134033	       94.4504239730	      453.9587680209	        2.5446482005	       -0.3329495737	        0.0000000000	       -0.0359620247	        0.0000000000	        0.0000000000	        0.0000000000	        0.0000000000	        0.0000000000	        0.0000000000	
        0.0105049390	     -133.3260795335	      115.7593354379	       34.0054130756	        0.1382731981	        0.0000000000	        0.0458346183	       73.2921463889	      361.8417949191	       -0.8087353270	       -0.3276962126	        0.0000000000	       -0.0337529831	        0.0000000000	        0.0000000000	        0.0000000000	        0.0000000000	        0.0000000000	        0.0000000000	
        0.0210098780	     -139.9799016906	      255.9538642795	       46.6381007673	        0.1542650315	        0.0000000000	        0.0464932846	       42.1953857791	      259.9321464208	      -11.2648725078	       -0.3189677649	        0.0000000000	       -0.0296574904	        0.0000000000	        0.0000000000	        0.0000000000	        0.0000000000	        0.0000000000	        0.0000000000	
        0.0315148170	      -83.1338019242	      514.9470978356	        8.9104715364	        0.1654440058	        0.0000000000	        0.0456847569	       17.1594975449	      171.1039155047	      -14.7931594894	       -0.3050622177	        0.0000000000	       -0.0218339643	        0.0000000000	        0.0000000000	        0.0000000000	        0.0000000000	        0.0000000000	        0.0000000000	
        0.0420197560	     -105.1384146959	      784.0389556706	       -8.0628077744	        0.1774558826	        0.0000000000	        0.0445044339	        0.4678937883	      140.3989142238	      -15.6441194296	       -0.3036190280	        0.0000000000	       -0.0206463480	        0.0000000000	        0.0000000000	        0.0000000000	        0.0000000000	        0.0000000000	        0.0000000000	
        0.0525246950	     -122.1960049020	      919.6200907243	      -11.0896002804	        0.1841016165	        0.0000000000	        0.0434929203	       -4.0896546561	      102.6068311645	      -14.9576701385	       -0.3033418792	        0.0000000000	       -0.0206795895	        0.0000000000	        0.0000000000	        0.0000000000	        0.0000000000	        0.0000000000	        0.0000000000	
        0.0630296339	     -121.7423436928	      928.7078904509	      -10.4979787926	        0.1879612068	        0.0000000000	        0.0427935877	      -12.2911933990	       57.6649016763	      -11.0910599232	       -0.3037271452	        0.0000000000	       -0.0206230441	        0.0000000000	        0.0000000000	        0.0000000000	        0.0000000000	        0.0000000000	        0.0000000000	
        0.0735345729	     -110.8589031408	      892.1778565570	       -9.1118420508	        0.1907161854	        0.0000000000	        0.0422735423	       -7.7186010325	        9.8719699892	       -2.0259628713	        0.0000000000	        0.0000000000	        0.0000000000	        0.0000000000	        0.0000000000	        0.0000000000	        0.0000000000	        0.0000000000	        0.0000000000	
        0.0840395119	      -97.8594896733	      846.6235581156	      -10.4154309912	        0.1931285918	        0.0000000000	        0.0418514988	        0.0031665129	       -0.0028334445	        0.0000281011	        0.0000000000	        0.0000000000	        0.0000000000	        0.0000000000	        0.0000000000	        0.0000000000	        0.0000000000	        0.0000000000	        0.0000000000	
        0.0945444509	      -83.8327937256	      800.6447811942	      -11.9374629581	        0.1955324577	        0.0000000000	        0.0415478252	        0.0000714106	       -0.0000540875	       -0.0000026582	        0.0000000000	        0.0000000000	        0.0000000000	        0.0000000000	        0.0000000000	        0.0000000000	        0.0000000000	        0.0000000000	        0.0000000000	
        0.1050493899	      -70.6683294129	      757.2816912799	      -12.9681160924	        0.1980983026	        0.0000000000	        0.0413539566	        0.0000906277	       -0.0000611828	       -0.0000046382	        0.0000000000	        0.0000000000	        0.0000000000	        0.0000000000	        0.0000000000	        0.0000000000	        0.0000000000	        0.0000000000	        0.0000000000	
        0.1155543289	      -58.8295156659	      718.4875659528	      -14.2056976347	        0.2010336132	        0.0000000000	        0.0412400037	        0.0013600219	       -0.0008425036	       -0.0000806975	        0.0000000000	        0.0000000000	        0.0000000000	        0.0000000000	        0.0000000000	        0.0000000000	        0.0000000000	        0.0000000000	        0.0000000000	
        0.1260592679	      -48.8573666804	      686.5128617891	      -16.4908183994	        0.2052032642	        0.0000000000	        0.0411322886	        0.0053064380	       -0.0030672404	       -0.0003505002	        0.0000000000	        0.0000000000	        0.0000000000	        0.0000000000	        0.0000000000	        0.0000000000	        0.0000000000	        0.0000000000	        0.0000000000	
        0.1365642069	      -41.9123433160	      661.3610983635	      -18.4775904069	        0.2103873187	        0.0000000000	        0.0410213475	       -0.0445433326	        0.0242814398	        0.0032713003	        0.0000000000	        0.0000000000	        0.0000000000	        0.0000000000	        0.0000000000	        0.0000000000	        0.0000000000	        0.0000000000	        0.0000000000	
        0.1470691459	      -36.5317755595	      641.4711909982	      -19.9100350902	        0.2158916802	        0.0000000000	        0.0409216925	       -0.0302517207	        0.0156543147	        0.0024535876	        0.0000000000	        0.0000000000	        0.0000000000	        0.0000000000	        0.0000000000	        0.0000000000	        0.0000000000	        0.0000000000	        0.0000000000	
        0.1575740849	      -31.7735583134	      625.9855640211	      -20.8287902485	        0.2216440584	        0.0000000000	        0.0408231013	       -0.0199906340	        0.0098684039	        0.0017588760	        0.0000000000	        0.0000000000	        0.0000000000	        0.0000000000	        0.0000000000	        0.0000000000	        0.0000000000	        0.0000000000	        0.0000000000	
        0.1680790238	      -28.0457394099	      613.9263960159	      -21.2702977493	        0.2275059462	        0.0000000000	        0.0407192178	       -0.0159462642	        0.0075449341	        0.0014970596	        0.0000000000	        0.0000000000	        0.0000000000	        0.0000000000	        0.0000000000	        0.0000000000	        0.0000000000	        0.0000000000	        0.0000000000	
        0.1785839628	      -25.0054391235	      604.3036425914	      -21.0822726725	        0.2332287664	        0.0000000000	        0.0406234043	       -0.0160758653	        0.0073245483	        0.0015765745	        0.0000000000	        0.0000000000	        0.0000000000	        0.0000000000	        0.0000000000	        0.0000000000	        0.0000000000	        0.0000000000	        0.0000000000	
        0.1890889018	      -22.2305347000	      596.8650174943	      -20.3699708482	        0.2388463535	        0.0000000000	        0.0405266150	       -0.0202859967	        0.0089404267	        0.0020356187	        0.0000000000	        0.0000000000	        0.0000000000	        0.0000000000	        0.0000000000	        0.0000000000	        0.0000000000	        0.0000000000	        0.0000000000	
        0.1995938408	      -19.8217243545	      591.1317423802	      -19.5950706329	        0.2443503267	        0.0000000000	        0.0404188694	       -0.0307966999	        0.0131837686	        0.0031115762	        0.0000000000	        0.0000000000	        0.0000000000	        0.0000000000	        0.0000000000	        0.0000000000	        0.0000000000	        0.0000000000	        0.0000000000	
